# xmcd CD database file
#
# Track frame offsets:
#	182
#	12960
#	29772
#	43190
#	60700
#	73795
#	86032
#	106120
#	123857
#	141642
#	152410
#	165822
#
# Disc length: 2355 seconds
#
# Revision: 1
# Processed by: cddbd v1.5.1PL0 Copyright (c) Steve Scherf et al.
# Submitted via: CDex 1.51
#
DISCID=9d09310c
DTITLE=Ruby Braff - The Best of Braff
DYEAR=1955
DGENRE=Jazz
TTITLE0=When You're Smiling
TTITLE1=Easy Living
TTITLE2=Pullin' Thru
TTITLE3=You're A Lucky Guy
TTITLE4=You're A Sweetheart
TTITLE5=Struttin' With Some Barbecue
TTITLE6=Flowers For A Lady
TTITLE7=Foolin' Myself
TTITLE8=I'll Be Around
TTITLE9=It's Easy To Blame The Weather
TTITLE10=Mean To Me
TTITLE11=Ellie
EXTD=YEAR: 1955
EXTT0=
EXTT1=
EXTT2=
EXTT3=
EXTT4=
EXTT5=
EXTT6=
EXTT7=
EXTT8=
EXTT9=
EXTT10=
EXTT11=
PLAYORDER=
